<svg width="204" height="89" viewBox="0 0 204 89" fill="none" xmlns="http://www.w3.org/2000/svg">
<path d="M43.8709 13.2353C44.8777 10.3834 47.8641 8.64876 50.834 9.22581C54.2102 9.8818 56.3941 13.1874 55.7164 16.5579C47.2058 58.8849 46.3857 75.8764 59.9169 72.2441C63.5384 71.272 67.5733 73.5178 67.5733 77.2659C67.5733 78.1334 67.3586 78.9906 66.866 79.7048C55.6961 95.9016 13.4675 99.3658 43.8709 13.2353Z" fill="#063E9E"/>
<path d="M27.5652 34.1567C27.5652 36.7594 26.1006 39.2253 23.6274 40.0393C1.89781 47.1912 -10.4669 19.7551 11.692 6.21618C17.2882 2.79691 24.0187 1.87446 30.5471 2.50631C45.4681 3.95042 64.4614 8.47915 73.6269 2.58658C75.9098 1.11885 78.4703 -0.253334 81.1688 0.0398553C85.1375 0.471053 88.1528 3.98117 87.6929 7.94499C87.247 11.7885 86.5597 13.4824 84.4571 15.674C70.2485 30.4846 32.3532 12.1701 20.6937 15.9464C7.92983 20.0803 13.4074 35.8409 23.8709 31.9927C25.5079 31.3907 27.5652 32.4131 27.5652 34.1567Z" fill="#063E9E"/>
<path d="M104.581 29.0656C121.083 29.0657 134.461 42.4435 134.461 58.9454C134.461 75.4475 121.084 88.8252 104.581 88.8253C88.0788 88.8253 74.7004 75.4475 74.7004 58.9454C74.7005 42.4434 88.0789 29.0656 104.581 29.0656ZM104.58 41.2892C94.9791 41.2894 87.1956 49.1945 87.1955 58.9454C87.1955 68.6965 94.9791 76.6014 104.58 76.6017C114.182 76.6017 121.966 68.6967 121.966 58.9454C121.966 49.1943 114.182 41.2892 104.58 41.2892Z" fill="#063E9E"/>
<path d="M164.884 82.5767C164.884 79.1263 162.087 76.3291 158.637 76.3291H155.649C152.198 76.3291 149.401 79.1263 149.401 82.5767C149.401 86.0271 152.198 88.8243 155.649 88.8243H158.637C162.087 88.8243 164.884 86.0271 164.884 82.5767Z" fill="#063E9E"/>
<path d="M141.524 6.24758C141.524 2.79714 144.321 0 147.771 0C151.222 0 154.019 2.79714 154.019 6.24758V72.1867C154.019 74.4745 155.874 76.3291 158.161 76.3291C160.449 76.3291 162.304 78.1837 162.304 80.4715V82.5767C162.304 86.0271 159.507 88.8243 156.056 88.8243H151.914C146.175 88.8243 141.524 84.1725 141.524 78.4343V6.24758Z" fill="#063E9E"/>
<path d="M171.947 39.6598C171.947 36.2094 174.744 33.4123 178.195 33.4123C181.645 33.4123 184.443 36.2094 184.443 39.6598V82.578C184.443 86.0284 181.645 88.8256 178.195 88.8256C174.744 88.8256 171.947 86.0284 171.947 82.578V39.6598Z" fill="#063E9E"/>
<path d="M171.947 22.5469C171.947 19.0965 174.744 16.2993 178.195 16.2993C181.645 16.2993 184.443 19.0965 184.443 22.5469C184.443 25.9973 181.645 28.7945 178.195 28.7945C174.744 28.7945 171.947 25.9973 171.947 22.5469Z" fill="#063E9E"/>
<path d="M191.505 22.5469C191.505 19.0965 194.302 16.2993 197.752 16.2993C201.203 16.2993 204 19.0965 204 22.5469C204 25.9973 201.203 28.7945 197.752 28.7945C194.302 28.7945 191.505 25.9973 191.505 22.5469Z" fill="#063E9E"/>
<path d="M191.505 39.6598C191.505 36.2094 194.302 33.4123 197.752 33.4123C201.203 33.4123 204 36.2094 204 39.6598V82.578C204 86.0284 201.203 88.8256 197.752 88.8256C194.302 88.8256 191.505 86.0284 191.505 82.578V39.6598Z" fill="#063E9E"/>
</svg>
